<svg width="79" height="25" viewBox="0 0 79 25" fill="none" xmlns="http://www.w3.org/2000/svg">
    <path d="M22.675 0H1.325C0.593 0 0 0.593 0 1.325V22.676C0 23.407 0.593 24 1.325 24H12.82V14.706H9.692V11.084H12.82V8.413C12.82 5.313 14.713 3.625 17.479 3.625C18.804 3.625 19.942 3.724 20.274 3.768V7.008L18.356 7.009C16.852 7.009 16.561 7.724 16.561 8.772V11.085H20.148L19.681 14.707H16.561V24H22.677C23.407 24 24 23.407 24 22.675V1.325C24 0.593 23.407 0 22.675 0Z" fill="#EC4899"/>
    <path d="M31.7344 24C31.6719 23.875 31.6211 23.6523 31.582 23.332C31.0781 23.8555 30.4766 24.1172 29.7773 24.1172C29.1523 24.1172 28.6387 23.9414 28.2363 23.5898C27.8379 23.2344 27.6387 22.7852 27.6387 22.2422C27.6387 21.582 27.8887 21.0703 28.3887 20.707C28.8926 20.3398 29.5996 20.1562 30.5098 20.1562H31.5645V19.6582C31.5645 19.2793 31.4512 18.9785 31.2246 18.7559C30.998 18.5293 30.6641 18.416 30.2227 18.416C29.8359 18.416 29.5117 18.5137 29.25 18.709C28.9883 18.9043 28.8574 19.1406 28.8574 19.418H27.7676C27.7676 19.1016 27.8789 18.7969 28.1016 18.5039C28.3281 18.207 28.6328 17.9727 29.0156 17.8008C29.4023 17.6289 29.8262 17.543 30.2871 17.543C31.0176 17.543 31.5898 17.7266 32.0039 18.0938C32.418 18.457 32.6328 18.959 32.6484 19.5996V22.5176C32.6484 23.0996 32.7227 23.5625 32.8711 23.9062V24H31.7344ZM29.9355 23.1738C30.2754 23.1738 30.5977 23.0859 30.9023 22.9102C31.207 22.7344 31.4277 22.5059 31.5645 22.2246V20.9238H30.7148C29.3867 20.9238 28.7227 21.3125 28.7227 22.0898C28.7227 22.4297 28.8359 22.6953 29.0625 22.8867C29.2891 23.0781 29.5801 23.1738 29.9355 23.1738ZM36.8906 23.2324C37.2773 23.2324 37.6152 23.1152 37.9043 22.8809C38.1934 22.6465 38.3535 22.3535 38.3848 22.002H39.4102C39.3906 22.3652 39.2656 22.7109 39.0352 23.0391C38.8047 23.3672 38.4961 23.6289 38.1094 23.8242C37.7266 24.0195 37.3203 24.1172 36.8906 24.1172C36.0273 24.1172 35.3398 23.8301 34.8281 23.2559C34.3203 22.6777 34.0664 21.8887 34.0664 20.8887V20.707C34.0664 20.0898 34.1797 19.541 34.4062 19.0605C34.6328 18.5801 34.957 18.207 35.3789 17.9414C35.8047 17.6758 36.3066 17.543 36.8848 17.543C37.5957 17.543 38.1855 17.7559 38.6543 18.1816C39.127 18.6074 39.3789 19.1602 39.4102 19.8398H38.3848C38.3535 19.4297 38.1973 19.0938 37.916 18.832C37.6387 18.5664 37.2949 18.4336 36.8848 18.4336C36.334 18.4336 35.9062 18.6328 35.6016 19.0312C35.3008 19.4258 35.1504 19.998 35.1504 20.748V20.9531C35.1504 21.6836 35.3008 22.2461 35.6016 22.6406C35.9023 23.0352 36.332 23.2324 36.8906 23.2324ZM43.2598 24.1172C42.4004 24.1172 41.7012 23.8359 41.1621 23.2734C40.623 22.707 40.3535 21.9512 40.3535 21.0059V20.8066C40.3535 20.1777 40.4727 19.6172 40.7109 19.125C40.9531 18.6289 41.2891 18.2422 41.7188 17.9648C42.1523 17.6836 42.6211 17.543 43.125 17.543C43.9492 17.543 44.5898 17.8145 45.0469 18.3574C45.5039 18.9004 45.7324 19.6777 45.7324 20.6895V21.1406H41.4375C41.4531 21.7656 41.6348 22.2715 41.9824 22.6582C42.334 23.041 42.7793 23.2324 43.3184 23.2324C43.7012 23.2324 44.0254 23.1543 44.291 22.998C44.5566 22.8418 44.7891 22.6348 44.9883 22.377L45.6504 22.8926C45.1191 23.709 44.3223 24.1172 43.2598 24.1172ZM43.125 18.4336C42.6875 18.4336 42.3203 18.5938 42.0234 18.9141C41.7266 19.2305 41.543 19.6758 41.4727 20.25H44.6484V20.168C44.6172 19.6172 44.4688 19.1914 44.2031 18.8906C43.9375 18.5859 43.5781 18.4336 43.125 18.4336ZM53.7188 24H52.5879L48.293 17.4258V24H47.1621V15.4688H48.293L52.5996 22.0723V15.4688H53.7188V24ZM55.2598 20.7715C55.2598 20.1504 55.3809 19.5918 55.623 19.0957C55.8691 18.5996 56.209 18.2168 56.6426 17.9473C57.0801 17.6777 57.5781 17.543 58.1367 17.543C59 17.543 59.6973 17.8418 60.2285 18.4395C60.7637 19.0371 61.0312 19.832 61.0312 20.8242V20.9004C61.0312 21.5176 60.9121 22.0723 60.6738 22.5645C60.4395 23.0527 60.1016 23.4336 59.6602 23.707C59.2227 23.9805 58.7188 24.1172 58.1484 24.1172C57.2891 24.1172 56.5918 23.8184 56.0566 23.2207C55.5254 22.623 55.2598 21.832 55.2598 20.8477V20.7715ZM56.3496 20.9004C56.3496 21.6035 56.5117 22.168 56.8359 22.5938C57.1641 23.0195 57.6016 23.2324 58.1484 23.2324C58.6992 23.2324 59.1367 23.0176 59.4609 22.5879C59.7852 22.1543 59.9473 21.5488 59.9473 20.7715C59.9473 20.0762 59.7812 19.5137 59.4492 19.084C59.1211 18.6504 58.6836 18.4336 58.1367 18.4336C57.6016 18.4336 57.1699 18.6465 56.8418 19.0723C56.5137 19.498 56.3496 20.1074 56.3496 20.9004ZM63.8613 16.125V17.6602H65.0449V18.498H63.8613V22.4297C63.8613 22.6836 63.9141 22.875 64.0195 23.0039C64.125 23.1289 64.3047 23.1914 64.5586 23.1914C64.6836 23.1914 64.8555 23.168 65.0742 23.1211V24C64.7891 24.0781 64.5117 24.1172 64.2422 24.1172C63.7578 24.1172 63.3926 23.9707 63.1465 23.6777C62.9004 23.3848 62.7773 22.9688 62.7773 22.4297V18.498H61.623V17.6602H62.7773V16.125H63.8613ZM68.9473 24.1172C68.0879 24.1172 67.3887 23.8359 66.8496 23.2734C66.3105 22.707 66.041 21.9512 66.041 21.0059V20.8066C66.041 20.1777 66.1602 19.6172 66.3984 19.125C66.6406 18.6289 66.9766 18.2422 67.4062 17.9648C67.8398 17.6836 68.3086 17.543 68.8125 17.543C69.6367 17.543 70.2773 17.8145 70.7344 18.3574C71.1914 18.9004 71.4199 19.6777 71.4199 20.6895V21.1406H67.125C67.1406 21.7656 67.3223 22.2715 67.6699 22.6582C68.0215 23.041 68.4668 23.2324 69.0059 23.2324C69.3887 23.2324 69.7129 23.1543 69.9785 22.998C70.2441 22.8418 70.4766 22.6348 70.6758 22.377L71.3379 22.8926C70.8066 23.709 70.0098 24.1172 68.9473 24.1172ZM68.8125 18.4336C68.375 18.4336 68.0078 18.5938 67.7109 18.9141C67.4141 19.2305 67.2305 19.6758 67.1602 20.25H70.3359V20.168C70.3047 19.6172 70.1562 19.1914 69.8906 18.8906C69.625 18.5859 69.2656 18.4336 68.8125 18.4336ZM76.3711 22.3184C76.3711 22.0254 76.2598 21.7988 76.0371 21.6387C75.8184 21.4746 75.4336 21.334 74.8828 21.2168C74.3359 21.0996 73.9004 20.959 73.5762 20.7949C73.2559 20.6309 73.0176 20.4355 72.8613 20.209C72.709 19.9824 72.6328 19.7129 72.6328 19.4004C72.6328 18.8809 72.8516 18.4414 73.2891 18.082C73.7305 17.7227 74.293 17.543 74.9766 17.543C75.6953 17.543 76.2773 17.7285 76.7227 18.0996C77.1719 18.4707 77.3965 18.9453 77.3965 19.5234H76.3066C76.3066 19.2266 76.1797 18.9707 75.9258 18.7559C75.6758 18.541 75.3594 18.4336 74.9766 18.4336C74.582 18.4336 74.2734 18.5195 74.0508 18.6914C73.8281 18.8633 73.7168 19.0879 73.7168 19.3652C73.7168 19.627 73.8203 19.8242 74.0273 19.957C74.2344 20.0898 74.6074 20.2168 75.1465 20.3379C75.6895 20.459 76.1289 20.6035 76.4648 20.7715C76.8008 20.9395 77.0488 21.1426 77.209 21.3809C77.373 21.6152 77.4551 21.9023 77.4551 22.2422C77.4551 22.8086 77.2285 23.2637 76.7754 23.6074C76.3223 23.9473 75.7344 24.1172 75.0117 24.1172C74.5039 24.1172 74.0547 24.0273 73.6641 23.8477C73.2734 23.668 72.9668 23.418 72.7441 23.0977C72.5254 22.7734 72.416 22.4238 72.416 22.0488H73.5C73.5195 22.4121 73.6641 22.7012 73.9336 22.916C74.207 23.127 74.5664 23.2324 75.0117 23.2324C75.4219 23.2324 75.75 23.1504 75.9961 22.9863C76.2461 22.8184 76.3711 22.5957 76.3711 22.3184Z" fill="#EC4899"/>
</svg>
